<?xml version="1.0" standalone="no"?>
<!DOCTYPE svg PUBLIC "-//W3C//DTD SVG 20010904//EN"
 "http://www.w3.org/TR/2001/REC-SVG-20010904/DTD/svg10.dtd">
<svg version="1.0" xmlns="http://www.w3.org/2000/svg"
 width="400.000000pt" height="400.000000pt" viewBox="0 0 400.000000 400.000000"
 preserveAspectRatio="xMidYMid meet">
<metadata>
Created by potrace 1.14, written by Peter Selinger 2001-2017
</metadata>
<g transform="translate(0.000000,400.000000) scale(0.100000,-0.100000)"
fill="#000000" stroke="none">
<path d="M1730 3409 c-109 -11 -246 -50 -335 -97 -104 -55 -232 -185 -278
-282 -64 -135 -80 -271 -52 -434 21 -119 45 -182 96 -256 66 -94 73 -108 58
-126 -6 -8 -38 -28 -71 -46 -130 -69 -189 -194 -144 -303 22 -53 94 -124 159
-156 40 -21 57 -35 55 -46 -2 -9 -30 -32 -63 -52 -155 -90 -265 -279 -265
-457 0 -76 31 -200 66 -265 45 -82 149 -173 256 -224 183 -86 383 -119 723
-118 261 0 395 16 559 65 259 76 406 206 456 402 69 272 -48 521 -302 641 -51
24 -130 53 -176 65 -178 45 -259 51 -737 60 -253 4 -474 12 -491 18 -116 37
-159 112 -120 205 19 48 65 81 156 116 l80 31 62 -31 c194 -98 621 -127 868
-59 137 38 235 94 331 190 142 141 196 285 185 490 -8 161 -47 279 -130 395
-55 77 -47 103 44 140 32 13 81 20 171 23 108 4 128 2 142 -13 15 -14 17 -43
17 -224 0 -189 2 -209 18 -224 24 -22 65 -21 85 1 15 16 17 50 17 274 0 234
-1 256 -18 271 -16 14 -43 17 -173 17 -85 0 -183 -5 -218 -10 -65 -11 -154
-51 -204 -92 l-28 -23 -83 41 c-175 85 -441 120 -716 93z m365 -119 c377 -34
574 -212 592 -536 10 -179 -33 -310 -139 -420 -91 -95 -190 -144 -358 -175
-85 -16 -435 -16 -520 0 -92 17 -187 49 -246 82 -68 38 -169 146 -200 213 -76
167 -69 394 17 556 118 222 415 319 854 280z m175 -1650 c212 -31 368 -96 466
-194 86 -86 108 -146 109 -291 0 -100 -3 -116 -28 -170 -33 -70 -111 -154
-182 -195 -72 -41 -213 -86 -340 -107 -135 -22 -571 -25 -700 -4 -226 36 -372
97 -471 195 -85 86 -108 146 -108 286 0 140 23 200 108 286 110 109 299 179
551 203 121 12 491 6 595 -9z"/>
</g>
</svg>
